<svg xmlns="http://www.w3.org/2000/svg" viewBox="0 0 64 64"><title>Artboard-29</title><g id="Money_Bag" data-name="Money Bag"><rect x="19" y="12" width="26" height="5" rx="1" ry="1" style="fill:#232328"/><path d="M44,1.07A26.977,26.977,0,0,1,41.69,10H36.34A7.284,7.284,0,0,0,37,7a1,1,0,0,0-2,0,5.882,5.882,0,0,1-.91,3H29.91A5.882,5.882,0,0,1,29,7a1,1,0,0,0-2,0,7.284,7.284,0,0,0,.66,3H22.31A26.977,26.977,0,0,1,20,1.07,1.009,1.009,0,0,1,21,0a3.286,3.286,0,0,1,2.57,1.32c.44.48.64.68,1.1.68s.65-.2,1.09-.68a3.162,3.162,0,0,1,5.14,0c.44.48.64.68,1.09.68s.66-.2,1.1-.68a3.162,3.162,0,0,1,5.14,0c.44.48.64.68,1.1.68s.66-.2,1.1-.68A3.286,3.286,0,0,1,43,0a1.009,1.009,0,0,1,1,1.07Z" style="fill:#232328"/><path d="M33.5,46H33v3h.5a1.5,1.5,0,0,0,0-3Zm0,0H33v3h.5a1.5,1.5,0,0,0,0-3Zm-3-5a1.5,1.5,0,0,0,0,3H31V41Zm3,5H33v3h.5a1.5,1.5,0,0,0,0-3Zm0,0H33v3h.5a1.5,1.5,0,0,0,0-3Zm-3-5a1.5,1.5,0,0,0,0,3H31V41Zm0,0a1.5,1.5,0,0,0,0,3H31V41Zm3,5H33v3h.5a1.5,1.5,0,0,0,0-3Zm0,0H33v3h.5a1.5,1.5,0,0,0,0-3ZM29,42.5A1.5,1.5,0,0,0,30.5,44H31V41h-.5A1.5,1.5,0,0,0,29,42.5ZM42.35,19H36.34A7.284,7.284,0,0,1,37,22a1,1,0,0,1-2,0,5.882,5.882,0,0,0-.91-3H29.91A5.882,5.882,0,0,0,29,22a1,1,0,0,1-2,0,7.284,7.284,0,0,1,.66-3H21.65C17.04,24.16,8.22,36.15,9.06,51.59,9.52,60.12,21.28,64,32,64s22.48-3.88,22.94-12.41C55.78,36.15,46.96,24.16,42.35,19ZM32,58A13,13,0,1,1,45,45,13.012,13.012,0,0,1,32,58Zm0-24A11,11,0,1,0,43,45,11.007,11.007,0,0,0,32,34Zm1.5,17H33v1a1,1,0,0,1-2,0V51H29a1,1,0,0,1,0-2h2V46h-.5a3.5,3.5,0,0,1,0-7H31V38a1,1,0,0,1,2,0v1h2a1,1,0,0,1,0,2H33v3h.5a3.5,3.5,0,0,1,0,7Zm0-5H33v3h.5a1.5,1.5,0,0,0,0-3ZM29,42.5A1.5,1.5,0,0,0,30.5,44H31V41h-.5A1.5,1.5,0,0,0,29,42.5ZM30.5,41a1.5,1.5,0,0,0,0,3H31V41Zm3,5H33v3h.5a1.5,1.5,0,0,0,0-3Zm0,0H33v3h.5a1.5,1.5,0,0,0,0-3Zm-3-5a1.5,1.5,0,0,0,0,3H31V41Zm0,0a1.5,1.5,0,0,0,0,3H31V41Zm3,5H33v3h.5a1.5,1.5,0,0,0,0-3Zm0,0H33v3h.5a1.5,1.5,0,0,0,0-3Zm0,0H33v3h.5a1.5,1.5,0,0,0,0-3Z" style="fill:#232328"/></g></svg>